<mxfile host="Electron" modified="2024-01-03T01:41:13.987Z" agent="Mozilla/5.0 (Windows NT 10.0; Win64; x64) AppleWebKit/537.36 (KHTML, like Gecko) draw.io/22.1.16 Chrome/120.0.6099.109 Electron/28.1.0 Safari/537.36" etag="DqNiUzBDUbhlIXXjcqXC" version="22.1.16" type="device">
  <diagram id="BiEHA8C1b_KC0IiVTxOt" name="第 1 页">
    <mxGraphModel dx="2327" dy="899" grid="1" gridSize="10" guides="1" tooltips="1" connect="1" arrows="1" fold="1" page="1" pageScale="1" pageWidth="827" pageHeight="1169" math="0" shadow="0">
      <root>
        <mxCell id="0" />
        <mxCell id="1" parent="0" />
        <mxCell id="IDfmGO9ghlW61sp2GqwQ-8" value="" style="group" parent="1" vertex="1" connectable="0">
          <mxGeometry x="120" y="290" width="120" height="190" as="geometry" />
        </mxCell>
        <mxCell id="IDfmGO9ghlW61sp2GqwQ-2" value="" style="rounded=1;whiteSpace=wrap;html=1;fillColor=#d5e8d4;strokeColor=#82b366;" parent="IDfmGO9ghlW61sp2GqwQ-8" vertex="1">
          <mxGeometry width="120" height="190" as="geometry" />
        </mxCell>
        <mxCell id="IDfmGO9ghlW61sp2GqwQ-3" value="JobDataMap" style="rounded=0;whiteSpace=wrap;html=1;fillColor=#fff2cc;strokeColor=#d6b656;" parent="IDfmGO9ghlW61sp2GqwQ-8" vertex="1">
          <mxGeometry x="15" y="60" width="90" height="40" as="geometry" />
        </mxCell>
        <mxCell id="IDfmGO9ghlW61sp2GqwQ-4" value="Job" style="rounded=0;whiteSpace=wrap;html=1;fillColor=#f8cecc;strokeColor=#b85450;" parent="IDfmGO9ghlW61sp2GqwQ-8" vertex="1">
          <mxGeometry x="15" y="120" width="90" height="40" as="geometry" />
        </mxCell>
        <mxCell id="IDfmGO9ghlW61sp2GqwQ-5" value="JobBuilder" style="text;html=1;strokeColor=none;fillColor=none;align=center;verticalAlign=middle;whiteSpace=wrap;rounded=0;" parent="IDfmGO9ghlW61sp2GqwQ-8" vertex="1">
          <mxGeometry x="40" y="20" width="40" height="20" as="geometry" />
        </mxCell>
        <mxCell id="IDfmGO9ghlW61sp2GqwQ-9" value="" style="group" parent="1" vertex="1" connectable="0">
          <mxGeometry x="480" y="290" width="120" height="190" as="geometry" />
        </mxCell>
        <mxCell id="IDfmGO9ghlW61sp2GqwQ-10" value="" style="rounded=1;whiteSpace=wrap;html=1;fillColor=#d5e8d4;strokeColor=#82b366;" parent="IDfmGO9ghlW61sp2GqwQ-9" vertex="1">
          <mxGeometry width="120" height="190" as="geometry" />
        </mxCell>
        <mxCell id="IDfmGO9ghlW61sp2GqwQ-11" value="JobDataMap" style="rounded=0;whiteSpace=wrap;html=1;fillColor=#fff2cc;strokeColor=#d6b656;" parent="IDfmGO9ghlW61sp2GqwQ-9" vertex="1">
          <mxGeometry x="15" y="60" width="90" height="40" as="geometry" />
        </mxCell>
        <mxCell id="IDfmGO9ghlW61sp2GqwQ-12" value="SchedulerBuilder" style="rounded=0;whiteSpace=wrap;html=1;fillColor=#f8cecc;strokeColor=#b85450;" parent="IDfmGO9ghlW61sp2GqwQ-9" vertex="1">
          <mxGeometry x="15" y="120" width="90" height="40" as="geometry" />
        </mxCell>
        <mxCell id="IDfmGO9ghlW61sp2GqwQ-13" value="TriggerBuilder" style="text;html=1;strokeColor=none;fillColor=none;align=center;verticalAlign=middle;whiteSpace=wrap;rounded=0;" parent="IDfmGO9ghlW61sp2GqwQ-9" vertex="1">
          <mxGeometry x="40" y="20" width="40" height="20" as="geometry" />
        </mxCell>
        <mxCell id="IDfmGO9ghlW61sp2GqwQ-19" value="" style="edgeStyle=orthogonalEdgeStyle;rounded=0;orthogonalLoop=1;jettySize=auto;html=1;fontColor=#000000;strokeColor=#FF0000;" parent="1" source="IDfmGO9ghlW61sp2GqwQ-15" target="IDfmGO9ghlW61sp2GqwQ-17" edge="1">
          <mxGeometry relative="1" as="geometry" />
        </mxCell>
        <mxCell id="IDfmGO9ghlW61sp2GqwQ-15" value="Listener" style="rounded=1;whiteSpace=wrap;html=1;fillColor=#dae8fc;strokeColor=#6c8ebf;" parent="1" vertex="1">
          <mxGeometry x="300" y="450" width="120" height="60" as="geometry" />
        </mxCell>
        <mxCell id="IDfmGO9ghlW61sp2GqwQ-16" value="JobDetail" style="rounded=1;whiteSpace=wrap;html=1;fillColor=#dae8fc;strokeColor=#6c8ebf;" parent="1" vertex="1">
          <mxGeometry x="120" y="560" width="120" height="60" as="geometry" />
        </mxCell>
        <mxCell id="IDfmGO9ghlW61sp2GqwQ-17" value="Scheduler" style="rounded=1;whiteSpace=wrap;html=1;fillColor=#dae8fc;strokeColor=#6c8ebf;" parent="1" vertex="1">
          <mxGeometry x="300" y="680" width="120" height="60" as="geometry" />
        </mxCell>
        <mxCell id="IDfmGO9ghlW61sp2GqwQ-18" value="Trigger" style="rounded=1;whiteSpace=wrap;html=1;fillColor=#dae8fc;strokeColor=#6c8ebf;" parent="1" vertex="1">
          <mxGeometry x="480" y="560" width="120" height="60" as="geometry" />
        </mxCell>
        <mxCell id="IDfmGO9ghlW61sp2GqwQ-21" value="" style="endArrow=classic;html=1;exitX=0;exitY=1;exitDx=0;exitDy=0;entryX=1;entryY=0;entryDx=0;entryDy=0;strokeColor=#FF0000;" parent="1" source="IDfmGO9ghlW61sp2GqwQ-15" target="IDfmGO9ghlW61sp2GqwQ-16" edge="1">
          <mxGeometry width="50" height="50" relative="1" as="geometry">
            <mxPoint x="580" y="440" as="sourcePoint" />
            <mxPoint x="630" y="390" as="targetPoint" />
          </mxGeometry>
        </mxCell>
        <mxCell id="IDfmGO9ghlW61sp2GqwQ-22" value="" style="endArrow=classic;html=1;exitX=1;exitY=1;exitDx=0;exitDy=0;entryX=0;entryY=0;entryDx=0;entryDy=0;strokeColor=#FF0000;" parent="1" source="IDfmGO9ghlW61sp2GqwQ-15" target="IDfmGO9ghlW61sp2GqwQ-18" edge="1">
          <mxGeometry width="50" height="50" relative="1" as="geometry">
            <mxPoint x="310" y="520" as="sourcePoint" />
            <mxPoint x="252.03999999999996" y="567.98" as="targetPoint" />
          </mxGeometry>
        </mxCell>
        <mxCell id="IDfmGO9ghlW61sp2GqwQ-24" value="" style="endArrow=none;dashed=1;html=1;exitX=1;exitY=1;exitDx=0;exitDy=0;entryX=0;entryY=0;entryDx=0;entryDy=0;strokeColor=#AED687;" parent="1" source="IDfmGO9ghlW61sp2GqwQ-16" target="IDfmGO9ghlW61sp2GqwQ-17" edge="1">
          <mxGeometry width="50" height="50" relative="1" as="geometry">
            <mxPoint x="580" y="440" as="sourcePoint" />
            <mxPoint x="630" y="390" as="targetPoint" />
          </mxGeometry>
        </mxCell>
        <mxCell id="IDfmGO9ghlW61sp2GqwQ-26" value="" style="endArrow=none;dashed=1;html=1;exitX=0;exitY=1;exitDx=0;exitDy=0;entryX=1;entryY=0;entryDx=0;entryDy=0;strokeColor=#AED687;" parent="1" source="IDfmGO9ghlW61sp2GqwQ-18" target="IDfmGO9ghlW61sp2GqwQ-17" edge="1">
          <mxGeometry width="50" height="50" relative="1" as="geometry">
            <mxPoint x="250" y="620" as="sourcePoint" />
            <mxPoint x="310" y="625" as="targetPoint" />
          </mxGeometry>
        </mxCell>
        <mxCell id="IDfmGO9ghlW61sp2GqwQ-27" value="" style="edgeStyle=orthogonalEdgeStyle;rounded=0;orthogonalLoop=1;jettySize=auto;html=1;" parent="1" source="IDfmGO9ghlW61sp2GqwQ-2" target="IDfmGO9ghlW61sp2GqwQ-16" edge="1">
          <mxGeometry relative="1" as="geometry" />
        </mxCell>
        <mxCell id="IDfmGO9ghlW61sp2GqwQ-28" value="" style="edgeStyle=orthogonalEdgeStyle;rounded=0;orthogonalLoop=1;jettySize=auto;html=1;" parent="1" source="IDfmGO9ghlW61sp2GqwQ-10" target="IDfmGO9ghlW61sp2GqwQ-18" edge="1">
          <mxGeometry relative="1" as="geometry" />
        </mxCell>
        <mxCell id="IDfmGO9ghlW61sp2GqwQ-30" value="CronScheduleBuilder" style="rounded=0;whiteSpace=wrap;html=1;fillColor=#fad7ac;strokeColor=#b46504;" parent="1" vertex="1">
          <mxGeometry x="660" y="380" width="200" height="40" as="geometry" />
        </mxCell>
        <mxCell id="IDfmGO9ghlW61sp2GqwQ-31" value="CalendarIntervalScheduleBuilder" style="rounded=0;whiteSpace=wrap;html=1;fillColor=#fad7ac;strokeColor=#b46504;" parent="1" vertex="1">
          <mxGeometry x="660" y="330" width="200" height="40" as="geometry" />
        </mxCell>
        <mxCell id="IDfmGO9ghlW61sp2GqwQ-32" value="DailyTimeIntervalScheuldeBuilder" style="rounded=0;whiteSpace=wrap;html=1;fillColor=#fad7ac;strokeColor=#b46504;" parent="1" vertex="1">
          <mxGeometry x="660" y="430" width="200" height="40" as="geometry" />
        </mxCell>
        <mxCell id="IDfmGO9ghlW61sp2GqwQ-33" value="SimpleScheduleBuilder" style="rounded=0;whiteSpace=wrap;html=1;fillColor=#fad7ac;strokeColor=#b46504;" parent="1" vertex="1">
          <mxGeometry x="660" y="480" width="200" height="40" as="geometry" />
        </mxCell>
        <mxCell id="IDfmGO9ghlW61sp2GqwQ-34" value="" style="strokeWidth=2;html=1;shape=mxgraph.flowchart.annotation_2;align=left;labelPosition=right;pointerEvents=1;" parent="1" vertex="1">
          <mxGeometry x="590" y="350" width="70" height="157.5" as="geometry" />
        </mxCell>
        <mxCell id="IDfmGO9ghlW61sp2GqwQ-43" value="" style="edgeStyle=orthogonalEdgeStyle;rounded=0;orthogonalLoop=1;jettySize=auto;html=1;" parent="1" source="IDfmGO9ghlW61sp2GqwQ-39" target="IDfmGO9ghlW61sp2GqwQ-17" edge="1">
          <mxGeometry relative="1" as="geometry" />
        </mxCell>
        <mxCell id="IDfmGO9ghlW61sp2GqwQ-39" value="SchedulerFactory" style="rounded=1;whiteSpace=wrap;html=1;fillColor=#d5e8d4;strokeColor=#82b366;" parent="1" vertex="1">
          <mxGeometry x="100" y="680" width="120" height="60" as="geometry" />
        </mxCell>
        <mxCell id="IDfmGO9ghlW61sp2GqwQ-40" value="" style="strokeWidth=2;html=1;shape=mxgraph.flowchart.annotation_2;align=left;labelPosition=right;pointerEvents=1;direction=west;" parent="1" vertex="1">
          <mxGeometry x="50" y="680" width="50" height="60" as="geometry" />
        </mxCell>
        <mxCell id="IDfmGO9ghlW61sp2GqwQ-41" value="StdSchdulerFactory" style="rounded=0;whiteSpace=wrap;html=1;fillColor=#fad7ac;strokeColor=#b46504;" parent="1" vertex="1">
          <mxGeometry x="-100" y="660" width="150" height="40" as="geometry" />
        </mxCell>
        <mxCell id="IDfmGO9ghlW61sp2GqwQ-42" value="DirectSchedulerFactory" style="rounded=0;whiteSpace=wrap;html=1;fillColor=#fad7ac;strokeColor=#b46504;" parent="1" vertex="1">
          <mxGeometry x="-100" y="720" width="150" height="40" as="geometry" />
        </mxCell>
        <mxCell id="IDfmGO9ghlW61sp2GqwQ-44" value="" style="strokeWidth=2;html=1;shape=mxgraph.flowchart.annotation_2;align=left;labelPosition=right;pointerEvents=1;direction=east;" parent="1" vertex="1">
          <mxGeometry x="420" y="680" width="50" height="60" as="geometry" />
        </mxCell>
        <mxCell id="IDfmGO9ghlW61sp2GqwQ-45" value="RemoteScheduler" style="rounded=0;whiteSpace=wrap;html=1;fillColor=#fad7ac;strokeColor=#b46504;" parent="1" vertex="1">
          <mxGeometry x="470" y="660" width="120" height="40" as="geometry" />
        </mxCell>
        <mxCell id="IDfmGO9ghlW61sp2GqwQ-46" value="StdSchduler" style="rounded=0;whiteSpace=wrap;html=1;fillColor=#fad7ac;strokeColor=#b46504;" parent="1" vertex="1">
          <mxGeometry x="470" y="720" width="120" height="40" as="geometry" />
        </mxCell>
        <mxCell id="IDfmGO9ghlW61sp2GqwQ-47" value="stratt" style="ellipse;whiteSpace=wrap;html=1;aspect=fixed;fillColor=#e1d5e7;strokeColor=#9673a6;" parent="1" vertex="1">
          <mxGeometry x="210" y="800" width="60" height="60" as="geometry" />
        </mxCell>
        <mxCell id="IDfmGO9ghlW61sp2GqwQ-48" value="stop" style="ellipse;whiteSpace=wrap;html=1;aspect=fixed;fillColor=#e1d5e7;strokeColor=#9673a6;" parent="1" vertex="1">
          <mxGeometry x="290" y="800" width="60" height="60" as="geometry" />
        </mxCell>
        <mxCell id="IDfmGO9ghlW61sp2GqwQ-49" value="pause" style="ellipse;whiteSpace=wrap;html=1;aspect=fixed;fillColor=#e1d5e7;strokeColor=#9673a6;" parent="1" vertex="1">
          <mxGeometry x="370" y="800" width="60" height="60" as="geometry" />
        </mxCell>
        <mxCell id="IDfmGO9ghlW61sp2GqwQ-50" value="resume" style="ellipse;whiteSpace=wrap;html=1;aspect=fixed;fillColor=#e1d5e7;strokeColor=#9673a6;" parent="1" vertex="1">
          <mxGeometry x="450" y="800" width="60" height="60" as="geometry" />
        </mxCell>
        <mxCell id="IDfmGO9ghlW61sp2GqwQ-52" value="" style="endArrow=classic;html=1;entryX=0.5;entryY=0;entryDx=0;entryDy=0;strokeColor=#635DFC;" parent="1" target="IDfmGO9ghlW61sp2GqwQ-47" edge="1">
          <mxGeometry width="50" height="50" relative="1" as="geometry">
            <mxPoint x="360" y="740" as="sourcePoint" />
            <mxPoint x="490" y="490" as="targetPoint" />
          </mxGeometry>
        </mxCell>
        <mxCell id="IDfmGO9ghlW61sp2GqwQ-54" value="" style="endArrow=classic;html=1;strokeColor=#635DFC;" parent="1" edge="1">
          <mxGeometry width="50" height="50" relative="1" as="geometry">
            <mxPoint x="360" y="740" as="sourcePoint" />
            <mxPoint x="320" y="800" as="targetPoint" />
          </mxGeometry>
        </mxCell>
        <mxCell id="IDfmGO9ghlW61sp2GqwQ-55" value="" style="endArrow=classic;html=1;exitX=0.5;exitY=1;exitDx=0;exitDy=0;entryX=0.5;entryY=0;entryDx=0;entryDy=0;strokeColor=#635DFC;" parent="1" source="IDfmGO9ghlW61sp2GqwQ-17" target="IDfmGO9ghlW61sp2GqwQ-49" edge="1">
          <mxGeometry width="50" height="50" relative="1" as="geometry">
            <mxPoint x="460" y="560" as="sourcePoint" />
            <mxPoint x="510" y="510" as="targetPoint" />
          </mxGeometry>
        </mxCell>
        <mxCell id="IDfmGO9ghlW61sp2GqwQ-56" value="" style="endArrow=classic;html=1;exitX=0.5;exitY=1;exitDx=0;exitDy=0;entryX=0.5;entryY=0;entryDx=0;entryDy=0;strokeColor=#635DFC;" parent="1" source="IDfmGO9ghlW61sp2GqwQ-17" target="IDfmGO9ghlW61sp2GqwQ-50" edge="1">
          <mxGeometry width="50" height="50" relative="1" as="geometry">
            <mxPoint x="470" y="570" as="sourcePoint" />
            <mxPoint x="520" y="520" as="targetPoint" />
          </mxGeometry>
        </mxCell>
        <mxCell id="j8EGKdD0QuKOIia1qILm-1" value="监听" style="text;html=1;align=center;verticalAlign=middle;resizable=0;points=[];autosize=1;strokeColor=none;fillColor=none;fontSize=14;fontStyle=1;fontColor=#FF0000;" vertex="1" parent="1">
          <mxGeometry x="250" y="510" width="50" height="30" as="geometry" />
        </mxCell>
        <mxCell id="j8EGKdD0QuKOIia1qILm-6" value="监听" style="text;html=1;align=center;verticalAlign=middle;resizable=0;points=[];autosize=1;strokeColor=none;fillColor=none;fontSize=14;fontStyle=1;fontColor=#FF0000;" vertex="1" parent="1">
          <mxGeometry x="335" y="540" width="50" height="30" as="geometry" />
        </mxCell>
        <mxCell id="j8EGKdD0QuKOIia1qILm-7" value="监听" style="text;html=1;align=center;verticalAlign=middle;resizable=0;points=[];autosize=1;strokeColor=none;fillColor=none;fontSize=14;fontStyle=1;fontColor=#FF0000;" vertex="1" parent="1">
          <mxGeometry x="414" y="510" width="50" height="30" as="geometry" />
        </mxCell>
        <mxCell id="j8EGKdD0QuKOIia1qILm-8" value="构建" style="text;html=1;align=center;verticalAlign=middle;resizable=0;points=[];autosize=1;strokeColor=none;fillColor=none;fontSize=14;fontStyle=1" vertex="1" parent="1">
          <mxGeometry x="515" y="498" width="50" height="30" as="geometry" />
        </mxCell>
        <mxCell id="j8EGKdD0QuKOIia1qILm-9" value="构建" style="text;html=1;align=center;verticalAlign=middle;resizable=0;points=[];autosize=1;strokeColor=none;fillColor=none;fontSize=14;fontStyle=1" vertex="1" parent="1">
          <mxGeometry x="155" y="498" width="50" height="30" as="geometry" />
        </mxCell>
        <mxCell id="j8EGKdD0QuKOIia1qILm-10" value="具体实现类" style="text;html=1;align=center;verticalAlign=middle;resizable=0;points=[];autosize=1;strokeColor=none;fillColor=none;fontSize=14;fontStyle=1;fontColor=#FA8264;" vertex="1" parent="1">
          <mxGeometry x="710" y="300" width="90" height="30" as="geometry" />
        </mxCell>
        <mxCell id="j8EGKdD0QuKOIia1qILm-11" value="构建" style="text;html=1;align=center;verticalAlign=middle;resizable=0;points=[];autosize=1;strokeColor=none;fillColor=none;fontSize=14;fontStyle=1" vertex="1" parent="1">
          <mxGeometry x="230" y="695" width="50" height="30" as="geometry" />
        </mxCell>
        <mxCell id="j8EGKdD0QuKOIia1qILm-13" value="具体实现类" style="text;html=1;align=center;verticalAlign=middle;resizable=0;points=[];autosize=1;strokeColor=none;fillColor=none;fontSize=14;fontStyle=1;fontColor=#FA8264;" vertex="1" parent="1">
          <mxGeometry x="-70" y="630" width="90" height="30" as="geometry" />
        </mxCell>
        <mxCell id="j8EGKdD0QuKOIia1qILm-14" value="具体实现类" style="text;html=1;align=center;verticalAlign=middle;resizable=0;points=[];autosize=1;strokeColor=none;fillColor=none;fontSize=14;fontStyle=1;fontColor=#FA8264;" vertex="1" parent="1">
          <mxGeometry x="485" y="630" width="90" height="30" as="geometry" />
        </mxCell>
        <mxCell id="j8EGKdD0QuKOIia1qILm-15" value="Builder 构造器" style="text;html=1;align=center;verticalAlign=middle;resizable=0;points=[];autosize=1;strokeColor=none;fillColor=none;fontSize=14;fontStyle=1" vertex="1" parent="1">
          <mxGeometry x="120" y="260" width="120" height="30" as="geometry" />
        </mxCell>
        <mxCell id="j8EGKdD0QuKOIia1qILm-16" value="Builder 构造器" style="text;html=1;align=center;verticalAlign=middle;resizable=0;points=[];autosize=1;strokeColor=none;fillColor=none;fontSize=14;fontStyle=1" vertex="1" parent="1">
          <mxGeometry x="480" y="260" width="120" height="30" as="geometry" />
        </mxCell>
        <mxCell id="j8EGKdD0QuKOIia1qILm-17" value="关联" style="text;html=1;align=center;verticalAlign=middle;resizable=0;points=[];autosize=1;strokeColor=none;fillColor=none;fontSize=14;fontStyle=1;fontColor=#AED687;" vertex="1" parent="1">
          <mxGeometry x="245" y="628" width="50" height="30" as="geometry" />
        </mxCell>
        <mxCell id="j8EGKdD0QuKOIia1qILm-18" value="关联" style="text;html=1;align=center;verticalAlign=middle;resizable=0;points=[];autosize=1;strokeColor=none;fillColor=none;fontSize=14;fontStyle=1;fontColor=#AED687;" vertex="1" parent="1">
          <mxGeometry x="420" y="628" width="50" height="30" as="geometry" />
        </mxCell>
        <mxCell id="j8EGKdD0QuKOIia1qILm-19" value="操作" style="text;html=1;align=center;verticalAlign=middle;resizable=0;points=[];autosize=1;strokeColor=none;fillColor=none;fontColor=#635DFC;fontSize=14;fontStyle=1" vertex="1" parent="1">
          <mxGeometry x="335" y="740" width="50" height="30" as="geometry" />
        </mxCell>
        <mxCell id="j8EGKdD0QuKOIia1qILm-20" value="nxt" style="text;html=1;align=center;verticalAlign=middle;resizable=0;points=[];autosize=1;strokeColor=none;fillColor=none;fontColor=#FFFFFF;" vertex="1" parent="1">
          <mxGeometry x="-120" y="250" width="40" height="30" as="geometry" />
        </mxCell>
        <mxCell id="j8EGKdD0QuKOIia1qILm-21" value="nxt" style="text;html=1;align=center;verticalAlign=middle;resizable=0;points=[];autosize=1;strokeColor=none;fillColor=none;fontColor=#FFFFFF;" vertex="1" parent="1">
          <mxGeometry x="827" y="840" width="40" height="30" as="geometry" />
        </mxCell>
      </root>
    </mxGraphModel>
  </diagram>
</mxfile>
